<svg width="321" height="896" viewBox="0 0 321 896" fill="none" xmlns="http://www.w3.org/2000/svg">
<path d="M0 896L386.5 937L397.5 -22L142 0L0 896Z" fill="#FF5ADC"/>
<path d="M293.25 821.838L237.701 831.632C233.519 832.37 230.725 836.361 231.462 840.543L241.257 896.091C241.994 900.273 245.985 903.068 250.167 902.33L305.716 892.535C309.898 891.798 312.692 887.807 311.955 883.625L302.16 828.077C301.423 823.895 297.432 821.1 293.25 821.838ZM278.322 881.322C279.536 888.202 276.05 892.055 270.163 893.093C264.845 894.031 261.284 891.828 259.119 888.776L263.955 884.555C265.322 886.218 266.545 887.613 268.833 887.21C271.011 886.826 272.249 885.729 271.662 882.399L267.68 859.816L274.324 858.645L278.322 881.322ZM295.807 888.571C289.637 889.659 285.127 887.428 282.507 883.92L287.369 879.841C289.198 881.91 291.363 883.302 294.63 882.726C297.376 882.242 298.901 880.557 298.564 878.648C298.164 876.375 296.223 875.888 292.941 875.083L291.158 874.665C286.002 873.476 282.377 871.463 281.422 866.05C280.543 861.063 283.678 856.605 289.596 855.562C293.825 854.816 297.114 855.749 299.971 859.216L295.379 863.442C293.884 861.607 292.511 861.019 290.601 861.356C288.66 861.698 287.647 863.146 287.93 864.756C288.281 866.744 289.654 867.332 292.73 868.075L294.512 868.493C300.587 869.911 304.196 871.83 305.176 877.384C306.227 883.349 302.104 887.461 295.807 888.571Z" fill="#171717"/>
<g clip-path="url(#clip0_106_20)">
<path d="M180.822 736.796C180.872 737.083 180.586 737.133 180.586 737.133L180.299 737.184C180.012 737.234 179.962 736.948 179.625 736.711C179.625 736.711 179.287 736.475 179.237 736.189C179.186 735.902 179.186 735.902 179.473 735.852L180.097 736.037C180.434 736.273 180.771 736.509 180.822 736.796ZM175.157 734.839C174.904 733.406 174.179 732.647 173.319 732.799C173.319 732.799 173.37 733.085 173.083 733.136L173.184 733.709L174.044 733.558C174.145 734.131 174.482 734.367 174.583 734.94L175.157 734.839ZM184.936 731.637C185.51 731.536 185.897 732.059 186.336 732.868L186.909 732.767C186.572 732.531 186.521 732.244 186.471 731.958C186.42 731.671 186.37 731.384 186.032 731.148C185.695 730.912 185.358 730.676 185.071 730.727C185.071 730.727 184.835 731.064 184.549 731.114C184.599 731.401 184.886 731.35 184.936 731.637ZM177.146 737.74C176.859 737.79 176.859 737.79 176.809 737.504C176.758 737.217 176.708 736.93 176.944 736.593C177.517 736.492 177.753 736.155 177.753 736.155C178.04 736.104 178.09 736.391 178.09 736.391C178.141 736.678 177.905 737.015 177.433 737.689L177.146 737.74ZM173.942 738.009C172.695 737.638 172.256 736.828 172.004 735.395C171.852 734.535 171.751 733.962 172.223 733.288C172.409 732.664 172.931 732.276 173.505 732.175C174.078 732.074 174.415 732.31 175.09 732.782C175.528 733.592 175.966 734.401 176.118 735.261L176.219 735.834L176.505 735.784L176.455 735.497C176.742 735.446 176.64 734.873 176.438 733.727C176.287 732.867 176.135 732.007 175.41 731.248C174.685 730.489 174.011 730.017 172.864 730.219C172.004 730.371 171.245 731.096 171.11 732.006C170.739 733.254 170.776 734.134 171.028 735.567C171.231 736.714 171.835 737.789 173.183 738.734C173.42 738.397 173.706 738.346 173.942 738.009ZM216.892 772.103C217.179 772.052 217.159 771.937 217.113 771.679C217.002 771.049 216.584 770.355 215.578 769.675C214.566 768.967 213.037 768.674 211.277 768.75C210.985 768.772 210.699 768.823 210.699 768.823C210.402 768.817 210.402 768.817 210.115 768.868C209.824 768.89 209.24 768.932 208.943 768.926C209.333 766.108 209.206 763.708 208.842 761.645C208.336 758.779 207.409 756.874 205.959 755.356C204.51 753.838 203.211 753.18 201.728 753.146C201.492 753.484 201.492 753.484 201.542 753.77C203.076 754.091 204.712 754.985 205.875 756.553C207.089 758.408 207.679 760.077 208.032 762.084C208.315 763.688 208.448 766.119 207.838 769.359C206.772 770.019 205.812 771.281 205.245 773.096C205.291 773.355 205.316 773.498 205.603 773.448C205.603 773.448 205.844 773.138 206.045 772.602C206.532 772.014 206.733 771.475 207.22 770.888C207.995 770.25 208.522 769.89 209.382 769.739C210.815 769.486 212.284 769.433 213.215 769.683C214.427 769.855 215.071 770.153 215.439 770.563C215.801 770.942 216.159 771.294 216.511 771.614C216.576 771.985 216.893 772.109 216.893 772.109L216.892 772.103ZM183.199 735.194C182.862 734.958 182.761 734.385 182.66 733.812C182.458 732.665 182.357 732.092 182.778 731.131C183.251 730.457 183.773 730.069 184.347 729.968C185.206 729.816 185.881 730.288 186.555 730.761C186.993 731.57 187.381 732.093 187.533 732.953C187.786 734.386 187.364 735.347 186.268 735.836C186.268 735.836 186.605 736.072 186.892 736.021C187.465 735.92 187.802 736.156 188.426 736.342C188.409 734.571 188.494 733.374 188.241 731.941C187.938 730.221 187.449 729.125 186.724 728.366C185.713 727.658 184.802 727.523 183.656 727.725C182.796 727.877 181.986 728.315 181.227 729.04C180.806 730.001 180.62 730.625 180.772 731.485C181.025 732.918 181.513 734.014 182.289 735.059C182.575 735.009 182.913 735.245 183.199 735.194ZM187.448 739.174C184.176 742.411 181.512 744.063 179.219 744.467C177.212 744.821 175.054 744.315 173.082 743.185C173.469 743.708 173.857 744.231 174.194 744.467L176.217 745.883C177.566 746.828 179.1 747.148 180.534 746.896C182.54 746.542 184.631 744.991 187.144 742.479L189.42 740.304C189.892 739.63 190.365 738.955 190.213 738.096C190.162 737.809 190.112 737.522 189.825 737.573C189.438 737.05 187.853 736.443 184.835 736.088C182.053 735.397 179.945 735.177 178.799 735.379C177.939 735.531 176.607 736.357 174.802 737.857C173.285 739.307 172.34 740.656 172.542 741.802C172.542 741.802 172.879 742.039 173.267 742.561C175.24 743.691 177.111 744.248 178.831 743.945C181.124 743.54 183.788 741.888 187.009 738.365L187.11 738.938C187.397 738.888 187.448 739.174 187.448 739.174ZM204.246 795.906C205.772 797.859 207.97 798.587 210.263 798.183C210.836 798.081 211.394 797.893 211.937 797.621C212.49 797.404 213.028 797.104 213.274 796.823C213.526 796.573 213.777 796.32 214.023 796.042C214.561 795.741 214.536 795.598 214.797 795.404L218.927 790.332C219.913 789.217 220.918 788.214 222.229 787.267C223.254 786.376 224.32 785.716 224.848 785.356C225.667 784.974 226.18 784.53 226.672 783.971C226.883 783.491 227.074 782.895 226.952 782.206C226.806 781.375 226.121 780.846 225.467 780.489C224.813 780.132 224.185 779.919 223.576 779.817C222.967 779.716 222.313 779.359 221.316 778.738C220.612 778.094 219.857 777.164 219.332 775.866L218.753 774.255C218.33 773.533 218.229 772.96 217.886 772.693C217.871 772.606 217.866 772.578 217.579 772.628C217.292 772.679 216.765 773.038 216.564 773.575C216.076 774.162 215.599 774.809 215.127 775.483C214.941 776.107 214.172 776.773 213.685 777.363C212.911 778 212.096 778.411 211.523 778.512C209.23 778.916 207.972 778.489 206.895 777.407C206.16 776.592 205.686 775.58 205.188 774.428C204.529 774.043 204.196 773.835 203.623 773.936C202.19 774.188 201.879 775.779 202.41 778.789L203.982 787.703C204.027 787.961 203.842 788.585 203.998 789.473C203.868 790.412 204.046 791.42 204.247 792.561L204.235 795.844L204.243 795.891L204.246 795.906ZM162.419 801.707C165.152 801.628 168.368 801.919 172.06 802.58C175.75 803.231 177.988 803.514 178.761 803.378C180.767 803.024 182.274 801.843 183.346 799.883C183.534 799.276 183.419 798.624 183.286 797.871C182.809 795.162 180.572 792.025 176.571 788.447L174.161 786.183C173.663 785.709 173.03 784.963 172.204 783.958C171.406 782.946 170.709 782.182 170.173 781.656C169.683 781.062 168.965 780.51 168.076 779.986C167.215 779.457 166.28 779.182 165.292 779.118C164.13 779.561 163.368 780.106 163.063 780.723C162.757 781.339 162.635 781.98 162.687 782.62C162.706 783.237 162.606 783.669 162.354 783.919C162.098 784.141 161.637 784.37 161.002 784.63C160.858 784.655 160.6 784.701 160.234 784.794L159.461 784.93C157.941 785.198 156.94 785.552 156.448 785.934C155.878 786.892 155.671 787.902 155.847 788.905C155.928 789.364 156.18 790.119 156.6 791.166C157.017 792.185 157.281 793.025 157.387 793.627C157.594 794.801 157.458 796.036 156.949 797.337C156.45 798.697 156.238 799.679 156.352 800.331C156.835 801.394 158.864 801.842 162.413 801.688L162.419 801.707ZM167.368 773.965C167.019 771.987 167.152 769.718 167.757 766.951C168.333 764.19 169.061 762.288 169.862 760.964C169.755 760.688 169.612 760.713 169.382 760.754L169.045 760.518C168.364 761.524 167.715 763.708 167.018 766.786C166.27 769.578 166.057 772.067 166.365 773.818C166.593 775.107 167.105 776.17 167.849 777.042C168.646 777.878 170.409 778.984 173.125 780.307L176.512 781.75C180.245 783.989 182.308 785.634 182.51 786.78C182.616 787.381 182.436 788.033 181.692 788.845C181.24 789.635 180.528 790.114 179.867 790.231C179.811 790.24 179.79 790.302 179.815 790.445C179.82 790.474 180.208 790.996 181.007 792.009C182.497 793.429 185.219 793.778 188.659 793.172C194.965 792.06 199.38 788.621 202.197 782.805C201.944 781.371 201.787 780.483 201.435 780.16L201.248 779.101C200.919 777.238 200.958 775.782 201.37 774.765C201.782 773.747 202.279 773.216 203.139 773.065C203.712 772.964 204.321 773.062 204.97 773.391C204.868 771.134 204.529 769.212 204.225 767.492C203.766 764.885 203.387 762.735 202.459 760.829C201.87 759.16 201.044 757.828 200.268 756.782C199.543 756.024 198.818 755.265 198.093 754.506C197.368 753.747 196.93 752.938 196.205 752.179C195.716 751.083 195.278 750.273 195.025 748.84C193.913 747.559 193.087 746.227 191.974 744.945C191.148 743.613 190.322 742.281 189.547 741.235L187.321 743.697C184.808 746.208 182.667 747.473 180.66 747.827C178.94 748.13 177.457 748.096 176.394 747.101L174.422 745.971C174.573 746.831 174.489 748.028 174.118 749.276L172.917 753.034C172.468 755.182 172.243 756.404 172.307 757.279C172.293 757.873 172.31 758.461 172.251 758.472L170.859 763.15C169.296 767.859 168.823 772.048 169.405 775.345C169.521 776.005 169.698 776.681 169.935 777.349C168.488 776.689 167.641 775.566 167.358 773.961L167.368 773.965ZM192.672 797.46C188.945 798.117 186.168 799.128 184.337 800.479L184.322 800.392C183.192 802.365 181.744 803.536 179.507 803.93C178.102 804.178 175.8 804.022 172.626 803.46C169.435 802.959 166.631 802.637 164.218 802.526C163.976 802.502 163.445 802.494 162.59 802.509C161.763 802.521 160.995 802.521 160.314 802.504C159.69 802.481 158.967 802.409 158.176 802.276C157.419 802.175 156.794 801.981 156.301 801.699C155.841 801.407 155.576 801.036 155.495 800.578C155.414 800.12 155.426 799.614 155.528 799.057C155.655 798.71 155.802 798.36 155.951 798.038C156.095 797.688 156.219 797.371 156.281 797.064C156.406 796.775 156.476 796.496 156.541 796.189C156.61 795.911 156.68 795.632 156.681 795.307C156.686 795.011 156.695 794.714 156.644 794.427C156.594 794.14 156.327 793.301 155.832 791.823C155.339 790.374 155.059 789.447 154.988 789.045C154.766 787.784 154.876 786.73 155.379 785.902C155.882 785.075 156.42 784.594 157.05 784.483L160.346 783.902C160.605 783.856 160.981 783.642 161.522 783.193C161.641 782.7 161.749 782.296 161.801 781.933C161.884 781.565 161.895 781.296 161.933 781.171C161.959 780.989 161.988 780.808 162.019 780.654C162.099 780.435 162.202 780.179 162.361 779.913C162.08 779.667 161.901 779.313 161.821 778.855C161.765 778.54 161.715 778.254 161.74 778.073C161.559 777.041 161.787 775.494 162.48 773.39L163.164 771.406C163.723 769.711 164.15 768.454 164.406 767.226C164.69 765.994 164.904 764.183 165.073 761.789C165.177 759.701 165.914 757.503 167.28 755.193L168.975 752.234C170.161 750.252 170.883 748.646 171.226 747.404C171.569 746.161 171.603 744.677 171.401 743.531C171.3 742.957 170.853 741.263 170.033 738.452C169.241 735.636 168.592 732.795 168.138 730.215C167.784 728.209 167.703 726.745 167.824 725.246C167.945 723.747 168.349 722.198 169.122 720.879C169.78 719.581 170.725 718.232 172.343 717.356C173.962 716.479 175.918 715.839 178.211 715.434C179.071 715.283 179.931 715.131 180.842 715.266C181.701 715.115 182.899 715.199 184.433 715.52C185.681 715.891 186.928 716.262 187.94 716.97C189.238 717.628 190.351 718.91 191.463 720.191C192.34 721.81 193.216 723.429 193.907 725.671C194.447 727.054 194.699 728.487 195.34 730.443C195.643 732.163 196.132 733.259 196.283 734.119C196.722 734.928 196.924 736.075 197.463 737.457C197.952 738.553 198.441 739.65 199.166 740.408C199.941 741.454 200.717 742.499 201.779 743.494C202.891 744.776 204.291 746.007 205.741 747.525C208.826 749.936 211.388 752.735 213.09 755.683C215.029 758.297 216.546 761.872 217.248 765.854C217.597 767.832 217.649 769.802 217.404 771.767C217.977 771.665 218.304 771.845 218.661 772.194C219.019 772.542 219.457 773.355 219.981 774.65L220.642 776.721C221.04 777.3 221.433 777.854 222.383 778.217C223.048 778.633 223.697 778.961 224.617 779.153C225.241 779.338 226.172 779.588 226.836 780.002C227.51 780.474 227.903 781.025 228.014 781.654C228.186 782.629 228.026 783.396 227.543 784.012C227.071 784.686 226.568 785.189 225.754 785.599C225.231 785.987 224.186 786.762 222.609 787.875C221.325 788.976 220.073 790.258 218.855 791.727L216.418 794.672C215.469 795.993 214.464 796.996 213.69 797.636C212.921 798.305 211.82 798.763 210.673 798.965L208.626 799.088C206.227 798.891 204.591 797.997 203.423 796.401C198.739 796.653 194.964 797.035 192.671 797.439L192.672 797.46Z" fill="#171717"/>
</g>
<path d="M97.0431 831.449C96.218 831.325 95.3956 831.216 94.5756 831.121C94.6108 830.562 94.6316 830.004 94.6523 829.447C94.9021 820.488 92.5083 813.745 88.1659 812.147C83.9856 810.625 78.1985 813.994 72.9046 820.582C72.3789 821.228 71.8728 821.901 71.3955 822.569C70.9395 822.26 70.4691 821.954 70.0012 821.663C62.404 816.959 55.3909 815.653 51.8594 818.654C48.4686 821.525 48.4971 828.267 51.5267 836.169C51.8286 836.953 52.1424 837.721 52.4876 838.498C51.6104 838.922 50.7527 839.372 49.9553 839.827C42.7252 843.869 37.947 849.079 38.7195 853.461C39.5177 857.987 46.2041 861.49 54.6965 862.835C55.384 862.938 56.0716 863.041 56.7684 863.113C56.7055 864.021 56.6689 864.91 56.6518 865.826C56.5568 874.144 58.8653 880.319 63.0312 881.843C67.3252 883.42 73.4653 879.944 78.8516 873.205C79.2772 872.666 79.7002 872.113 80.1181 871.531C80.8629 872.043 81.6314 872.52 82.3973 872.984C89.5129 877.234 95.9962 878.319 99.3751 875.465C102.871 872.515 102.931 865.429 99.8126 857.363C99.5702 856.747 99.3108 856.12 99.0344 855.48C99.473 855.269 99.8947 855.045 100.316 854.821C108.151 850.582 113.391 845.036 112.58 840.437C111.805 836.041 105.369 832.778 97.0431 831.449ZM75.3531 822.574C79.8907 816.927 84.5716 814.202 87.0837 815.12C89.7698 816.098 91.7102 821.619 91.4985 829.36C91.4845 829.871 91.4679 830.368 91.4225 830.869C88.092 830.709 84.7541 830.759 81.4427 831.044C79.0915 828.676 76.5877 826.455 73.9389 824.424C74.4069 823.788 74.8656 823.183 75.3531 822.574ZM64.1673 856.737C65.1255 857.869 66.0982 858.999 67.1091 860.093C64.8152 860.243 62.5152 860.274 60.2236 860.185C60.49 857.984 60.9023 855.682 61.4367 853.314C62.3254 854.474 63.226 855.617 64.1673 856.737ZM56.7189 840.055C58.7143 839.225 60.855 838.458 63.0975 837.764C62.5453 839.103 62.0126 840.468 61.5257 841.84C61.0363 843.198 60.5664 844.582 60.1423 845.973C58.8523 843.972 57.7143 841.989 56.7189 840.055ZM62.4341 849.354C63.0332 847.184 63.7265 845.042 64.4826 842.92C65.2388 840.797 66.0917 838.717 67.0075 836.655C69.1432 836.114 71.335 835.638 73.5855 835.241C75.8359 834.844 78.0728 834.54 80.2504 834.32C81.7989 835.932 83.2974 837.597 84.7459 839.317C86.1944 841.036 87.5784 842.811 88.9098 844.626C88.2963 846.798 87.6055 848.954 86.8375 851.094C86.0813 853.217 85.2428 855.295 84.3441 857.368C82.2227 857.906 79.9995 858.373 77.7347 858.772C75.4698 859.172 73.2643 859.486 71.1206 859.729C69.5407 858.108 68.0252 856.431 66.5742 854.697C65.1232 852.963 63.7536 851.186 62.4341 849.354ZM89.797 852.188C90.3076 850.782 90.7724 849.368 91.2201 847.943C92.5143 849.884 93.6982 851.874 94.7913 853.94C92.6449 854.842 90.4491 855.633 88.2158 856.296C88.7799 854.94 89.2957 853.563 89.797 852.188ZM89.9174 840.723C89.0142 839.566 88.0967 838.412 87.1554 837.291C86.2311 836.183 85.2805 835.094 84.3036 834.024C86.6773 833.905 88.968 833.905 91.1297 834.018C90.8447 836.282 90.4341 838.508 89.9174 840.723ZM72.1664 827.025C73.9728 828.412 75.7079 829.901 77.3523 831.466C74.4729 831.839 71.6022 832.345 68.7689 832.979C69.8526 830.858 71.0027 828.861 72.1664 827.025ZM53.8643 821.082C56.0372 819.233 61.7762 820.316 68.3357 824.365C68.7527 824.62 69.1747 824.905 69.6112 825.187C67.8024 828.004 66.1948 830.95 64.7808 833.982C61.5717 834.847 58.4298 835.924 55.3526 837.2C55.0346 836.493 54.7429 835.766 54.4512 835.04C51.8571 828.257 51.8178 822.804 53.8643 821.082ZM57.073 859.948C56.4365 859.88 55.8117 859.796 55.1845 859.697C51.9404 859.267 48.1781 858.345 45.298 856.773C43.662 856.015 42.4047 854.621 41.8211 852.914C41.353 850.259 45.313 846.06 51.4844 842.594C52.2556 842.159 53.0462 841.75 53.8394 841.356C55.3755 844.331 57.1033 847.212 59.0007 849.959C58.1505 853.236 57.5056 856.58 57.073 859.948ZM76.4005 871.199C74.4065 873.809 71.9582 876.036 69.1673 877.755C67.7016 878.806 65.8679 879.204 64.1083 878.841C61.5792 877.911 59.7241 872.958 59.8073 865.838C59.8228 864.997 59.8526 864.154 59.9139 863.321C63.2681 863.447 66.6127 863.351 69.9598 863.015C72.3423 865.393 74.892 867.621 77.5578 869.664C77.1754 870.195 76.7905 870.711 76.4005 871.199ZM79.3133 867.05C77.5604 865.714 75.7769 864.204 74.0136 862.555C75.4088 862.369 76.842 862.146 78.2846 861.892C79.7705 861.63 81.2224 861.344 82.6522 861.017C81.6499 863.093 80.5313 865.1 79.3133 867.05ZM98.9353 868.078C99.1176 869.871 98.5437 871.677 97.3557 873.039C95.2974 874.778 90.1 873.899 84.0169 870.275C83.3189 869.859 82.6133 869.4 81.8906 868.93C83.6655 866.089 85.2416 863.133 86.6072 860.08C89.8622 859.222 93.0617 858.134 96.1771 856.822C96.4262 857.391 96.661 857.963 96.8787 858.523C98.1381 861.532 98.8291 864.776 98.9353 868.078ZM98.8109 852.02C98.43 852.221 98.0491 852.423 97.6512 852.613C96.0838 849.628 94.2983 846.757 92.3406 844.006C93.2036 840.802 93.8349 837.549 94.2659 834.257C95.0544 834.343 95.8166 834.448 96.55 834.558C103.682 835.694 109.008 838.315 109.473 840.955C109.975 843.798 105.587 848.357 98.8109 852.02ZM76.8317 853.651C80.4814 853.008 82.9143 849.512 82.2671 845.842C81.6199 842.171 78.1382 839.719 74.4885 840.362C70.8387 841.006 68.4058 844.501 69.053 848.172C69.7002 851.842 73.1819 854.295 76.8317 853.651Z" fill="#171717"/>
<g clip-path="url(#clip1_106_20)">
<path d="M71.0035 630.768C69.3402 631.062 68.2363 632.638 68.5296 634.301L78.7683 692.368C79.0616 694.031 80.6381 695.135 82.3014 694.842L140.368 684.603C142.031 684.31 143.135 682.733 142.842 681.07L132.603 623.003C132.31 621.34 130.733 620.236 129.07 620.53L71.0035 630.768ZM121.948 648.625C123.582 648.337 125.046 648.18 126.344 648.155C127.566 648.123 128.789 648.222 129.99 648.448L131.148 655.01C130.541 654.731 129.909 654.51 129.261 654.349C128.592 654.179 127.911 654.06 127.224 653.992C125.924 653.866 124.612 653.912 123.323 654.13C122.522 654.271 121.807 654.474 121.177 654.745C120.614 654.973 120.091 655.29 119.628 655.684C119.223 656.042 118.935 656.437 118.755 656.868C118.574 657.302 118.524 657.78 118.612 658.242C118.704 658.765 118.929 659.213 119.277 659.581C119.628 659.948 120.093 660.274 120.669 660.558C121.245 660.841 121.928 661.095 122.72 661.324C123.512 661.556 124.403 661.782 125.388 661.999C126.735 662.304 127.961 662.666 129.063 663.08C130.166 663.496 131.142 664.015 131.989 664.637C132.836 665.255 133.531 666.011 134.079 666.903C134.627 667.794 135.015 668.874 135.24 670.147C135.549 671.901 135.476 673.436 135.024 674.744C134.584 676.032 133.831 677.191 132.833 678.117C131.754 679.101 130.503 679.878 129.143 680.408C127.689 680.995 126.123 681.436 124.449 681.731C122.803 682.029 121.132 682.172 119.46 682.16C118.015 682.164 116.577 681.961 115.191 681.555L113.953 674.534C116.728 676.162 119.989 676.757 123.16 676.214C124.049 676.057 124.811 675.84 125.445 675.563C126.082 675.285 126.595 674.964 126.991 674.602C127.383 674.236 127.655 673.841 127.808 673.412C127.973 672.915 127.993 672.382 127.868 671.873C127.742 671.365 127.475 670.902 127.098 670.54C126.608 670.085 126.044 669.718 125.429 669.457C124.664 669.125 123.874 668.855 123.065 668.652C122.105 668.403 121.14 668.173 120.171 667.962C117.54 667.372 115.493 666.442 114.029 665.177C112.567 663.913 111.649 662.233 111.28 660.143C110.991 658.504 111.072 657.039 111.521 655.746C111.97 654.453 112.691 653.326 113.689 652.366C114.747 651.365 115.976 650.562 117.317 649.994C118.801 649.356 120.356 648.897 121.948 648.625ZM81.6886 656.241L107.219 651.739L108.239 657.522L99.0764 659.137L103.617 684.89L96.3636 686.169L91.8227 660.416L82.7083 662.024L81.6886 656.241Z" fill="#171717"/>
</g>
<path d="M249.156 521.435L250.416 528.581C251.526 534.879 236.724 542.785 217.362 546.199C198.001 549.613 181.387 547.246 180.276 540.949L179.016 533.802C177.906 527.504 192.708 519.598 212.07 516.184C231.431 512.77 248.045 515.137 249.156 521.435ZM251.991 537.514L254.826 553.594C255.937 559.892 241.134 567.798 221.773 571.212C202.411 574.626 185.797 572.259 184.687 565.961L181.852 549.882C190.3 553.734 204.515 553.715 218.26 551.291C232.005 548.868 245.37 544.024 251.991 537.514ZM256.401 562.527L259.237 578.607C260.347 584.905 245.545 592.811 226.183 596.225C206.822 599.639 190.208 597.272 189.097 590.974L186.262 574.895C194.71 578.747 208.926 578.728 222.671 576.304C236.415 573.881 249.78 569.037 256.401 562.527Z" fill="#171717"/>
<path d="M147.171 482.88C146.137 483.063 145.039 482.97 144.036 482.605L133.523 478.649C131.962 478.096 132.607 477.696 133.043 477.46C134.824 476.462 135.185 476.255 137.002 474.741C137.196 474.579 137.482 474.576 137.723 474.677L145.801 477.726C146.09 477.834 146.461 477.768 146.68 477.571L172.276 456.089C172.511 455.888 172.626 455.55 172.572 455.241L166.768 422.327C166.711 422.003 166.489 421.739 166.182 421.618L134.801 410.199C134.511 410.091 134.156 410.154 133.921 410.354L108.357 431.831C108.106 432.034 107.991 432.373 108.048 432.697L113.849 465.595C113.903 465.904 114.128 466.183 114.43 466.273L123.032 469.404C127.648 470.771 129.801 467.828 129.358 465.312L123.63 432.83C123.549 432.367 123.856 431.947 124.319 431.865L127.93 431.229C128.377 431.15 128.825 431.437 128.907 431.9L134.637 464.397C135.633 470.047 133.119 473.833 127.766 474.777C126.115 475.068 124.819 475.297 120.892 474.143L112.665 471.152C110.626 470.414 109.133 468.623 108.755 466.477L102.954 433.579C102.578 431.449 103.366 429.24 105.03 427.849L130.594 406.372C132.22 405.035 134.611 404.614 136.581 405.317L167.983 416.764C170.022 417.503 171.515 419.293 171.893 421.439L177.694 454.338C178.07 456.468 177.279 458.661 175.618 460.068L150.023 481.55C149.205 482.235 148.22 482.695 147.171 482.88ZM164.456 446.389C163.37 440.229 158.916 439.327 149.964 439.712C140.9 440.1 139.899 439.656 139.535 437.587C139.232 435.873 139.586 433.455 146.143 432.299C151.99 431.268 154.374 432.153 155.965 435.947C156.108 436.304 156.496 436.522 156.882 436.454L160.585 435.801C160.817 435.761 161.016 435.63 161.141 435.433C161.265 435.236 161.301 434.991 161.245 434.762C159.474 428.054 154.395 425.687 145.261 427.297C137.13 428.731 132.89 433.012 133.905 438.771C135.005 445.008 140.139 445.885 148.066 445.283C157.562 444.548 158.529 445.794 158.853 447.631C159.414 450.812 157.092 452.622 151.09 453.68C143.545 455.01 141.56 453.403 140.343 449.749C140.21 449.359 139.819 449.125 139.403 449.199L135.715 449.849C135.252 449.93 134.963 450.364 135.042 450.811C135.888 455.612 139.506 460.88 151.988 458.679C160.995 457.075 165.551 452.595 164.456 446.389Z" fill="#171717"/>
<path d="M248.91 395.491L240.23 394.564C239.321 394.475 238.675 393.658 238.766 392.754L246.085 326.181C246.176 325.277 246.998 324.632 247.907 324.722L256.587 325.649C257.496 325.738 258.143 326.554 258.051 327.459L250.733 394.031C250.628 394.938 249.822 395.594 248.91 395.491ZM230.811 383.105L235.599 375.819C236.105 375.049 235.879 374.006 235.082 373.522L220.923 364.953L231.297 352.058C231.881 351.33 231.75 350.271 230.997 349.723L224.006 344.514C223.283 343.975 222.246 344.116 221.692 344.852L205.386 366.471C204.807 367.225 205 368.316 205.802 368.827L228.521 383.578C229.293 384.081 230.318 383.872 230.811 383.105ZM275.128 375.374L291.431 353.742C292.01 352.988 291.818 351.897 291.016 351.386L268.295 336.621C267.538 336.13 266.514 336.338 266.005 337.094L261.216 344.381C260.71 345.15 260.936 346.193 261.733 346.678L275.895 355.26L265.52 368.155C264.936 368.882 265.067 369.942 265.82 370.49L272.812 375.699C273.537 376.251 274.571 376.097 275.128 375.374Z" fill="#171717"/>
<path d="M132 210.982L150.602 280.368L179.953 284.776L206.203 270.564L199.952 199L132 210.982ZM190.554 224.139L158.029 229.874L160.306 238.542L191.379 233.063L193.632 259.911L177.155 267.773L177.165 267.826L176.97 267.861L158.647 266.079L155.206 252.77L163.647 251.281L165.462 257.956L175.385 258.869L184.432 254.611L183.541 243.349L154.007 248.557L147.17 223.031L189.835 215.508L190.554 224.139Z" fill="#171717"/>
<path d="M327.059 131.791L282.525 100.599C281.293 99.7366 279.768 99.399 278.287 99.6602C276.805 99.9215 275.488 100.76 274.625 101.992L268.14 111.246L279.873 119.461C284.799 116.768 290.644 120.909 289.764 126.436L301.073 134.355C307.297 130.902 313.975 138.268 309.875 144.119C305.651 150.151 296.185 145.96 297.759 138.801L287.206 131.422L291.365 155.012C296.691 156.576 297.103 162.354 295 165.349C293.973 166.815 292.407 167.813 290.644 168.124C288.882 168.434 287.068 168.033 285.601 167.006C281.599 164.199 281.857 158.303 285.868 155.781L281.669 131.969C277.352 131.032 275.857 126.858 276.524 123.894L264.956 115.783L243.57 146.33C242.707 147.563 242.37 149.087 242.631 150.569C242.892 152.051 243.731 153.368 244.963 154.231L289.509 185.42C290.741 186.283 292.266 186.62 293.747 186.359C295.228 186.098 296.545 185.259 297.408 184.028L328.452 139.691C329.315 138.459 329.653 136.934 329.392 135.452C329.131 133.971 328.292 132.654 327.059 131.791Z" fill="#171717"/>
<path d="M248 644.545L268.942 722.489L302.209 727.39L331.794 711.406L324.815 631L248 644.545ZM313.454 649.504L314.162 659.135L292.837 673.064L292.78 673.094L315.084 669.162L317.695 698.939L299.063 708.144L278.27 705.787L274.383 691.23L284.165 689.506L286.156 697.054L297.147 697.859L307.546 692.849L306.113 680.396L272.829 686.162L272.826 686.142L272.789 686.169L270.436 677.034L291.213 663.739L292.418 662.969L267.833 667.304L265.005 658.047L313.454 649.504Z" fill="#171717"/>
<path d="M248.115 45.3877C247.21 44.6491 245.967 45.1138 245.008 45.4864C242.695 46.3337 240.184 47.2869 237.697 46.7013C240.678 39.4545 242.673 31.7644 243.166 23.932C243.323 20.9604 243.319 17.9495 242.704 15.0271C242.342 13.3945 241.804 11.683 240.558 10.4971C237.491 7.65467 233.462 5.89954 229.297 5.53212C224.092 5.0604 218.835 6.40094 214.215 8.77297C213.826 8.92573 213.396 8.81415 212.992 8.83363C208.399 8.71612 203.572 9.93229 200.18 13.177C195.271 12.33 190.133 12.2019 185.309 13.5823C181.722 14.6058 178.352 16.9515 176.804 20.4331C174.837 24.7835 175.351 29.8049 176.577 34.2807C178.494 40.1725 181.016 45.8609 183.913 51.3313C185.786 54.7301 187.788 58.135 190.542 60.9066C191.931 62.2612 193.689 63.5636 195.729 63.456C197.541 63.3595 198.951 61.9766 199.809 60.4811C201.293 57.8995 202.837 55.3491 204.465 52.8581C205.889 53.2696 207.377 53.3885 208.85 53.2418C208.228 54.3144 207.794 55.6479 206.606 56.2356C205.031 57.1853 203.038 57.4462 201.748 58.8338C200.998 59.5994 201.193 60.9448 202.088 61.514C203.722 62.6219 205.829 62.5509 207.712 62.3804C210.376 62.1174 212.878 60.765 214.57 58.6894C215.295 62.8722 216.053 67.062 217.257 71.1378C217.921 73.5314 219.399 75.7719 221.54 77.0844C223.554 78.2996 226.098 78.1774 228.246 77.4013C230.348 76.6041 232.467 75.5582 233.904 73.7733C235.428 71.863 235.775 69.3233 235.726 66.9538C235.646 62.7058 235.406 58.4666 235.143 54.2313C239.929 54.1953 245.031 52.378 247.905 48.3718C248.524 47.5419 249.016 46.2079 248.115 45.3877ZM230.87 7.89469C233.846 8.46214 236.649 9.86463 238.921 11.8649C240.004 12.821 240.381 14.296 240.678 15.6524C241.294 18.9045 241.203 22.2391 240.919 25.5205C240.34 31.6037 238.889 37.592 236.746 43.308C236.535 43.8719 236.293 44.4219 236.012 44.953C235.959 44.8169 235.851 44.5385 235.798 44.3994C236.001 43.3359 236.39 42.2979 236.42 41.2005C236.658 38.0791 235.47 35.1186 234.664 32.1618C233.876 29.3765 234.357 26.4448 233.833 23.6193C233.699 22.2148 232.919 21.0015 232.167 19.8513C229.48 15.882 225.739 12.5897 221.342 10.6507C220.267 10.1617 219.114 9.89003 218.042 9.39731C222.064 7.76387 226.569 7.08593 230.866 7.89211L230.87 7.89469ZM232.588 32.5345C233.424 35.8478 235.034 39.2799 234.013 42.743C231.147 38.8957 227.694 35.3491 225.909 30.8168C225.376 29.3694 224.973 27.4887 226.119 26.2139C227.594 24.7195 229.844 24.6005 231.815 24.3759C232.205 27.0829 231.843 29.8706 232.591 32.5339L232.588 32.5345ZM198.164 59.107C197.561 60.1376 196.721 61.3875 195.377 61.3499C193.783 61.1786 192.573 59.9636 191.508 58.8686C188.579 55.6174 186.475 51.7326 184.49 47.8593C182.222 43.2604 180.162 38.5439 178.593 33.657C177.579 29.9064 177.072 25.7822 178.423 22.0445C179.43 19.2172 181.864 17.098 184.631 16.0576C189.058 14.369 193.92 14.4746 198.553 15.0406C196.989 17.5137 195.921 20.2903 195.525 23.194C194.972 27.0755 195.112 31.077 196.081 34.884C196.726 37.5718 197.135 40.3141 197.231 43.0761C197.375 46.6795 199.427 50.0499 202.46 51.9645C201.046 54.3593 199.51 56.6757 198.162 59.1107L198.164 59.107ZM199.953 45.792C199.153 43.8779 199.385 41.7689 199.099 39.761C198.854 37.4744 198.296 35.2399 197.853 32.9881C199.725 31.2493 202.006 29.7452 204.592 29.441C205.928 29.2637 207.315 29.9852 207.865 31.2356C209.844 35.6594 211.113 40.748 209.658 45.5252C209.179 47.3545 208.858 49.2174 208.629 51.09C204.931 51.7807 201.23 49.2053 199.953 45.7952L199.953 45.792ZM213.664 56.151C211.894 59.7106 207.346 61.1329 203.681 60.0116C205.204 58.9515 207.154 58.669 208.589 57.4402C209.99 56.3336 210.281 54.3919 211.562 53.1933C213.099 52.6929 214.662 54.8311 213.667 56.1473L213.664 56.151ZM232.959 48.9552C232.326 50.5338 232.943 52.2153 233.005 53.8329C233.278 58.3506 233.562 62.8729 233.617 67.4C233.647 69.5693 233.146 71.9681 231.341 73.3688C229.484 74.7659 227.23 75.8355 224.873 75.8859C222.628 75.8876 220.897 74.0989 219.931 72.2302C219.187 70.652 218.835 68.9272 218.405 67.2419C217.459 63.1595 216.728 59.0296 216.107 54.8866C215.914 53.2598 214.791 51.729 213.214 51.1992C212.449 50.9301 211.625 51.0205 210.837 51.0949C210.914 47.9566 212.298 45.0144 212.397 41.8754C212.558 37.9856 211.416 34.1672 209.924 30.6173C209.188 28.8438 207.496 27.4586 205.55 27.3398C202.545 27.1232 199.841 28.7599 197.481 30.417C197.069 26.1789 197.433 21.7008 199.395 17.8553C200.833 14.9973 203.457 12.7962 206.504 11.8421C211.534 10.2798 217.187 10.7436 221.844 13.241C225.693 15.3154 229.001 18.4611 231.157 22.2753C228.751 22.6123 226.023 22.9931 224.382 24.995C222.888 26.7837 223.107 29.3462 223.875 31.3951C225.679 36.2731 229.408 40.0327 232.401 44.1775C233.171 45.1371 234.119 45.9266 235.032 46.7478C234.225 47.3523 233.31 47.9563 232.966 48.9572L232.959 48.9552ZM239.743 51.4331C238.196 51.8997 236.564 52.2456 234.949 51.9908C234.803 51.1279 234.576 50.1145 235.155 49.35C235.632 48.849 236.347 48.3385 237.058 48.6687C240.003 49.6131 243.015 48.368 245.821 47.5145C244.37 49.5282 242.085 50.7519 239.743 51.4331ZM226.85 26.7344C226.371 27.294 227.097 27.8768 227.618 28.008C228.908 28.4882 230.34 27.2469 230.142 25.9052C228.999 25.5994 227.683 25.8833 226.847 26.735L226.85 26.7344ZM206.536 32.5137C206.985 32.1438 207.375 31.2769 206.716 30.9116C205.777 30.3889 204.56 30.4709 203.608 30.9167C203.305 31.0864 203.005 31.3655 203.141 31.7488C203.609 33.0492 205.549 33.5473 206.533 32.5142L206.536 32.5137Z" fill="#171717" stroke="#171717"/>
<defs>
<clipPath id="clip0_106_20">
<rect width="91.3142" height="91.3142" fill="white" transform="translate(133 720.857) rotate(-10)"/>
</clipPath>
<clipPath id="clip1_106_20">
<rect x="68" y="631.298" width="65.0621" height="65.0621" rx="7" transform="rotate(-10 68 631.298)" fill="white"/>
</clipPath>
</defs>
</svg>
